<?xml version="1.0" encoding="UTF-8"?>
<!DOCTYPE svg PUBLIC "-//W3C//DTD SVG 1.1//EN" "http://www.w3.org/Graphics/SVG/1.1/DTD/svg11.dtd">
<svg xmlns="http://www.w3.org/2000/svg" xmlns:xlink="http://www.w3.org/1999/xlink" version="1.1" width="25px" height="22px" viewBox="-0.5 -0.5 25 22"><defs/><g><path d="M 10.31 0.66 C 10.63 0.1 11.23 -0.25 11.88 -0.25 C 12.53 -0.25 13.13 0.1 13.45 0.66 L 23.58 17.74 C 23.82 18.24 23.77 18.83 23.45 19.29 C 23.13 19.75 22.59 20 22.03 19.94 L 1.47 19.94 C 0.93 19.86 0.47 19.52 0.24 19.03 C 0 18.54 0.02 17.97 0.28 17.5 Z M 10.5 5.52 L 10.93 12.68 L 12.88 12.68 L 13.24 5.52 Z M 10.38 15.48 C 10.38 16.34 11.07 17.03 11.93 17.03 C 12.78 17.03 13.47 16.34 13.47 15.48 C 13.47 15.07 13.31 14.68 13.02 14.39 C 12.73 14.1 12.34 13.94 11.93 13.94 C 11.52 13.94 11.12 14.1 10.84 14.39 C 10.55 14.68 10.38 15.07 10.38 15.48 Z" fill="#e51400" stroke="#b20000" stroke-miterlimit="10" pointer-events="all"/></g></svg>